<svg class="animated" id="freepik_stories-image-viewer" xmlns="http://www.w3.org/2000/svg" viewBox="0 0 500 500" version="1.1" xmlns:xlink="http://www.w3.org/1999/xlink" xmlns:svgjs="http://svgjs.com/svgjs"><style>svg#freepik_stories-image-viewer:not(.animated) .animable {opacity: 0;}svg#freepik_stories-image-viewer.animated #freepik--Plant--inject-18 {animation: 3s Infinite  linear floating;animation-delay: 0s;}svg#freepik_stories-image-viewer.animated #freepik--Screen--inject-18 {animation: 1s 1 forwards cubic-bezier(.36,-0.01,.5,1.38) fadeIn,1.5s Infinite  linear floating;animation-delay: 0s,1s;}svg#freepik_stories-image-viewer.animated #freepik--Camera--inject-18 {animation: 1.5s Infinite  linear floating;animation-delay: 0s;}svg#freepik_stories-image-viewer.animated #freepik--Character--inject-18 {animation: 1s 1 forwards cubic-bezier(.36,-0.01,.5,1.38) slideDown,1.5s Infinite  linear floating;animation-delay: 0s,1s;}            @keyframes floating {                0% {                    opacity: 1;                    transform: translateY(0px);                }                50% {                    transform: translateY(-10px);                }                100% {                    opacity: 1;                    transform: translateY(0px);                }            }                    @keyframes fadeIn {                0% {                    opacity: 0;                }                100% {                    opacity: 1;                }            }                    @keyframes slideDown {                0% {                    opacity: 0;                    transform: translateY(-30px);                }                100% {                    opacity: 1;                    transform: translateY(0);                }            }        </style><g id="freepik--Floor--inject-18" class="animable" style="transform-origin: 250px 354.31px;"><ellipse cx="250" cy="354.31" rx="226.1" ry="130.54" style="fill: rgb(245, 245, 245); transform-origin: 250px 354.31px;" id="eldg01j982td" class="animable"></ellipse></g><g id="freepik--Shadows--inject-18" class="animable" style="transform-origin: 237.591px 359.599px;"><path d="M316.73,296.6,127,406.36c-5.53,3.2-15.19,2.8-21.58-.89L80.26,391c-6.38-3.68-7.08-9.26-1.55-12.46L268.49,268.74c5.53-3.19,15.19-2.79,21.58.9l25.11,14.5C321.57,287.82,322.26,293.4,316.73,296.6Z" style="fill: rgb(224, 224, 224); transform-origin: 197.722px 337.554px;" id="ely0ai2z63j6" class="animable"></path><ellipse cx="384.32" cy="399.96" rx="56.68" ry="32.73" style="fill: rgb(224, 224, 224); transform-origin: 384.32px 399.96px;" id="eluudgyg8ous" class="animable"></ellipse><path d="M65,355.38c7.06,4.07,7.06,10.67,0,14.74s-18.48,4.07-25.53,0-7.05-10.67,0-14.74S58,351.31,65,355.38Z" style="fill: rgb(224, 224, 224); transform-origin: 52.2388px 362.75px;" id="elrwwn327gln" class="animable"></path><path d="M252.67,393.08l-101,57.77c-4.53,2.61-12.44,2.28-17.67-.73l-11.88-6.87c-5.23-3-5.8-7.58-1.27-10.2l101.05-57.76c4.53-2.62,12.44-2.29,17.67.73l11.88,6.86C256.63,385.9,257.2,390.47,252.67,393.08Z" style="fill: rgb(224, 224, 224); transform-origin: 186.762px 413.066px;" id="el03ebe0tm2xmh" class="animable"></path><path d="M246.91,417l-40.53,23.5c-4.53,2.61-12.44,2.28-17.67-.74l-11.88-6.86c-5.23-3-5.8-7.58-1.27-10.2l40.53-23.5c4.53-2.61,12.44-2.28,17.67.74l11.89,6.86C250.88,409.85,251.44,414.41,246.91,417Z" style="fill: rgb(224, 224, 224); transform-origin: 211.237px 419.85px;" id="el2xsbe94fcjf" class="animable"></path></g><g id="freepik--Plant--inject-18" class="animable animator-active" style="transform-origin: 51.645px 319.325px;"><path d="M51.1,330.16s13.61-13.3,5.86-35.57C52.62,282.11,38.23,273,30,272.08a38.53,38.53,0,0,1,6.4,10.8l10.32,6.86-9.49-3,2,8.12s8.83,5.34,10.13,6.5l-9.51-2.49S40.64,321.89,51.1,330.16Z" style="fill: rgb(186, 104, 200); transform-origin: 44.673px 301.12px;" id="elbda4if29zs" class="animable"></path><g id="elt6oawsceg3"><path d="M51.1,330.16s13.61-13.3,5.86-35.57C52.62,282.11,38.23,273,30,272.08a38.53,38.53,0,0,1,6.4,10.8l10.32,6.86-9.49-3,2,8.12s8.83,5.34,10.13,6.5l-9.51-2.49S40.64,321.89,51.1,330.16Z" style="opacity: 0.4; transform-origin: 44.673px 301.12px;" class="animable"></path></g><path d="M51.1,330.16s7-27.82-3.38-44.05C47.72,286.11,59.94,300.43,51.1,330.16Z" style="fill: rgb(255, 255, 255); transform-origin: 51.0152px 308.135px;" id="elhvgt5d911z9" class="animable"></path><path d="M35.52,333.92l16.65-.2h.17l16.66.2s.19,20.53-6.13,28.88h0c-1.75,2.22-5.84,3.77-10.61,3.77s-8.88-1.56-10.62-3.79C35.33,354.43,35.52,333.92,35.52,333.92Z" style="fill: rgb(55, 71, 79); transform-origin: 52.26px 350.145px;" id="eld7wemfmy98" class="animable"></path><path d="M35.51,333.92c0,5,7.5,9,16.75,9s16.74-4,16.74-9-7.5-9-16.74-9S35.51,329,35.51,333.92Z" style="fill: rgb(69, 90, 100); transform-origin: 52.255px 333.92px;" id="eljsmbsjqst5i" class="animable"></path><path d="M52.26,331.54c-5.76,0-10.64,1.85-12.36,4.41a3.62,3.62,0,0,1-.67-2c0-3.55,5.83-6.42,13-6.42s13,2.87,13,6.42a3.68,3.68,0,0,1-.66,2C62.9,333.39,58,331.54,52.26,331.54Z" style="fill: rgb(38, 50, 56); transform-origin: 52.23px 331.74px;" id="elpy0zdldwmio" class="animable"></path><ellipse cx="52.26" cy="335.95" rx="12.36" ry="4.41" style="fill: rgb(224, 224, 224); transform-origin: 52.26px 335.95px;" id="el62t6mbffz" class="animable"></ellipse><path d="M52.05,337.06s6.46-.25,12-8.82c2.28-3.54,3.38-5.39,3.38-5.39l-9-.67,10.08-2.52,4.75-7.28-8.36-.62s6.23-2.19,10.68-2.21c0,0,7.71-13.63,10-15.57a43.74,43.74,0,0,0-30.47,15.14C42.4,324.11,50.17,337.44,52.05,337.06Z" style="fill: rgb(186, 104, 200); transform-origin: 66.7788px 315.524px;" id="el8pllwj8apmf" class="animable"></path><path d="M52.05,337.06s-4-24.31,21.72-38.93C73.77,298.13,47,311,52.05,337.06Z" style="fill: rgb(255, 255, 255); transform-origin: 62.5929px 317.595px;" id="elpxw5fn530ni" class="animable"></path><path d="M52.05,337.06s-5.84.38-11.64-6.83c-2.39-3-3.56-4.55-3.56-4.55l8-1.45-9.33-1.32-5-6.12,7.49-1.35s-5.83-1.38-9.84-1c0,0-8.24-11.57-10.46-13.11a39.67,39.67,0,0,1,28.91,10.79C59.55,324.47,53.79,337.23,52.05,337.06Z" style="fill: rgb(186, 104, 200); transform-origin: 36.2735px 319.179px;" id="elkzkc8s1xoe" class="animable"></path><g id="elsfsvauczrt8"><path d="M52.05,337.06s-5.84.38-11.64-6.83c-2.39-3-3.56-4.55-3.56-4.55l8-1.45-9.33-1.32-5-6.12,7.49-1.35s-5.83-1.38-9.84-1c0,0-8.24-11.57-10.46-13.11a39.67,39.67,0,0,1,28.91,10.79C59.55,324.47,53.79,337.23,52.05,337.06Z" style="opacity: 0.2; transform-origin: 36.2735px 319.179px;" class="animable"></path></g><path d="M52.05,337.06S53.41,314.75,28.79,304C28.79,304,54.12,313.05,52.05,337.06Z" style="fill: rgb(255, 255, 255); transform-origin: 40.4801px 320.53px;" id="elyr1iexqsndo" class="animable"></path></g><g id="freepik--Cable--inject-18" class="animable" style="transform-origin: 280.119px 293.547px;"><path d="M242,354.19a1.73,1.73,0,0,1-.86-3.23l71.68-41.08A7.3,7.3,0,0,0,313,297.3l-5.68-3.41a19.8,19.8,0,0,0-20.09-.16L281,297.29a16.07,16.07,0,0,1-14.78,0c-2.26-1.3-3.56-3.22-3.56-5.26s1.3-4,3.56-5.27l10.43-6a11.78,11.78,0,0,0,5.87-10.15l0-35.39a1.73,1.73,0,0,1,1.73-1.73h0A1.73,1.73,0,0,1,286,235.2l0,35.39a15.24,15.24,0,0,1-7.6,13.14l-10.43,6c-1.16.67-1.83,1.5-1.83,2.27s.67,1.6,1.83,2.27a12.73,12.73,0,0,0,11.32,0l6.18-3.57a23.27,23.27,0,0,1,23.6.2l5.68,3.4a10.77,10.77,0,0,1-.16,18.55L242.9,354A1.73,1.73,0,0,1,242,354.19Z" style="fill: rgb(186, 104, 200); transform-origin: 280.119px 293.842px;" id="elm232gooogh" class="animable"></path><g id="elx8otc9kkvsl"><path d="M242,354.19a1.73,1.73,0,0,1-.86-3.23l71.68-41.08A7.3,7.3,0,0,0,313,297.3l-5.68-3.41a19.8,19.8,0,0,0-20.09-.16L281,297.29a16.07,16.07,0,0,1-14.78,0c-2.26-1.3-3.56-3.22-3.56-5.26s1.3-4,3.56-5.27l10.43-6a11.78,11.78,0,0,0,5.87-10.15l0-35.39a1.73,1.73,0,0,1,1.73-1.73h0A1.73,1.73,0,0,1,286,235.2l0,35.39a15.24,15.24,0,0,1-7.6,13.14l-10.43,6c-1.16.67-1.83,1.5-1.83,2.27s.67,1.6,1.83,2.27a12.73,12.73,0,0,0,11.32,0l6.18-3.57a23.27,23.27,0,0,1,23.6.2l5.68,3.4a10.77,10.77,0,0,1-.16,18.55L242.9,354A1.73,1.73,0,0,1,242,354.19Z" style="opacity: 0.2; transform-origin: 280.119px 293.842px;" class="animable"></path></g><path d="M284.2,249.18h0a4.29,4.29,0,0,1-4.29-4.28v-12h8.58v12A4.29,4.29,0,0,1,284.2,249.18Z" style="fill: rgb(186, 104, 200); transform-origin: 284.2px 241.04px;" id="elrl0ogqn6bx8" class="animable"></path><g id="elep9wwo3g2l"><path d="M284.2,249.18h0a4.29,4.29,0,0,1-4.29-4.28v-12h8.58v12A4.29,4.29,0,0,1,284.2,249.18Z" style="opacity: 0.4; transform-origin: 284.2px 241.04px;" class="animable"></path></g></g><g id="freepik--Device--inject-18" class="animable" style="transform-origin: 197.215px 176.48px;"><path d="M260.05,308.93l-29.81,17a15.34,15.34,0,0,1-15.22,0l-19.1-11-2.18-1.26a14.92,14.92,0,0,1-7.45-12.91v-55L231,220.17v56.18a12.88,12.88,0,0,0,6.44,11.15l22.62,13.06A4.83,4.83,0,0,1,260.05,308.93Z" style="fill: rgb(38, 50, 56); transform-origin: 224.382px 274.06px;" id="eltpkl4g1nf4p" class="animable"></path><path d="M223.87,327.85a15.29,15.29,0,0,0,6.37-2l29.81-17a4.83,4.83,0,0,0,0-8.37l-15.45-8.92H223.87Z" style="fill: rgb(55, 71, 79); transform-origin: 243.169px 309.705px;" id="el9ynsv2c59d" class="animable"></path><path d="M259.52,296.87l.83.66a5.68,5.68,0,0,1,2.13,4.44v2.78h-3Z" style="fill: rgb(55, 71, 79); transform-origin: 260.98px 300.81px;" id="ela0uatf5yn4" class="animable"></path><path d="M234.46,224.42V275a12.46,12.46,0,0,0,6.23,10.79l18.83,11.11a4.67,4.67,0,0,1,0,8.1l-2.14,1.22L230.63,321.4a14.82,14.82,0,0,1-14.72,0l-18.53-10.94a12.46,12.46,0,0,1-6.23-10.79V249.07Z" style="fill: rgb(69, 90, 100); transform-origin: 226.507px 273.888px;" id="elhoelqz0oje" class="animable"></path><path d="M234.46,275V224.42l-43.31,24.65v50.55a12.46,12.46,0,0,0,6.23,10.79l42.67-25.05A12.45,12.45,0,0,1,234.46,275Z" style="fill: rgb(38, 50, 56); transform-origin: 215.6px 267.415px;" id="elfttr6u06hf4" class="animable"></path><path d="M97.41,337.26l-4.92,2.85v9a17.54,17.54,0,0,1-9-2.47l-.38-.23a9.71,9.71,0,0,1-4.5-6.17,5.87,5.87,0,0,1-.26-1.7V326.27Z" style="fill: rgb(38, 50, 56); transform-origin: 87.88px 337.69px;" id="eld75u0ra5tnf" class="animable"></path><path d="M311.33,6.56l-.39-.24a17.64,17.64,0,0,0-9-2.47h0a5.68,5.68,0,0,0-2.88.76L87,126.6a17.15,17.15,0,0,0-8.58,14.86V326.27l19,11L298.93,221.41a17.16,17.16,0,0,0,8.58-14.86V14.92h8.57A9.74,9.74,0,0,0,311.33,6.56Z" style="fill: rgb(55, 71, 79); transform-origin: 197.25px 170.56px;" id="el649gyxby66t" class="animable"></path><path d="M80.19,133.76a17.28,17.28,0,0,0-1.82,7.7V326.27l19,11,7.13-4.12V148.84Z" style="fill: rgb(38, 50, 56); transform-origin: 91.435px 235.515px;" id="elh5ej36vwg0m" class="animable"></path><path d="M86.94,331.21v12.27a5.62,5.62,0,0,0,8.43,4.86l212.13-122a17.16,17.16,0,0,0,8.58-14.86V198.92Z" style="fill: rgb(55, 71, 79); transform-origin: 201.51px 274.006px;" id="eld28fd6769po" class="animable"></path><path d="M316.08,14.43a5.62,5.62,0,0,0-8.43-4.87l-212.13,122a17.15,17.15,0,0,0-8.58,14.86v184.8L316.08,198.92" style="fill: rgb(69, 90, 100); transform-origin: 201.51px 170.014px;" id="elziao3bcie0g" class="animable"></path><path d="M303.79,22.94h-.05a6.09,6.09,0,0,0-2.79.65L101.58,138.2A15.16,15.16,0,0,0,94,151.33V308.79a4.89,4.89,0,0,0,.41,2h0a5,5,0,0,0,7,2.33L300.82,198.47a15.16,15.16,0,0,0,7.58-13.12V27.89A5,5,0,0,0,303.79,22.94Z" style="fill: rgb(186, 104, 200); transform-origin: 201.2px 168.346px;" id="ela9qxuqsse0a" class="animable"></path><g id="elybz7wz1npc9"><path d="M303.79,22.94h-.05a6.09,6.09,0,0,0-2.79.65L101.58,138.2A15.16,15.16,0,0,0,94,151.33V308.79a4.89,4.89,0,0,0,.41,2h0a5,5,0,0,0,7,2.33L300.82,198.47a15.16,15.16,0,0,0,7.58-13.12V27.89A5,5,0,0,0,303.79,22.94Z" style="fill: rgb(255, 255, 255); opacity: 0.5; transform-origin: 201.2px 168.346px;" class="animable"></path></g></g><g id="freepik--Screen--inject-18" class="animable" style="transform-origin: 213.87px 178.777px;"><path d="M115.28,142.32,306,32.2c2.19-1.27,4.15-1.17,5.55,0l6.6,4.56-4.5,5.57V196.13c0,5.64-3.43,12.18-7.65,14.62l-188.84,109-.35,6-7-4.77c-1.39-1.05-2.24-3.1-2.24-5.92V156.94C107.63,151.3,111.05,144.76,115.28,142.32Z" style="fill: rgb(186, 104, 200); transform-origin: 212.86px 178.517px;" id="ele7vf6rl3r" class="animable"></path><g id="elxdvzqcl43s"><path d="M115.28,142.32,306,32.2c2.19-1.27,4.15-1.17,5.55,0l6.6,4.56-4.5,5.57V196.13c0,5.64-3.43,12.18-7.65,14.62l-188.84,109-.35,6-7-4.77c-1.39-1.05-2.24-3.1-2.24-5.92V156.94C107.63,151.3,111.05,144.76,115.28,142.32Z" style="fill: rgb(255, 255, 255); opacity: 0.2; transform-origin: 212.86px 178.517px;" class="animable"></path></g><path d="M114.13,319.56V161.41a19.09,19.09,0,0,1,2.56-9.09l-6.81-3.91a18.92,18.92,0,0,0-2.25,8.53V315.09c0,2.82.85,4.87,2.24,5.92l6.41,4.39C115,324.34,114.13,322.32,114.13,319.56Z" style="fill: rgb(186, 104, 200); transform-origin: 112.16px 236.905px;" id="eld15kxytyiov" class="animable"></path><g id="elr9wcygfvrri"><path d="M116.72,325.71l.11.07h0A.6.6,0,0,1,116.72,325.71Z" style="fill: rgb(186, 104, 200); opacity: 0.3; transform-origin: 116.775px 325.745px;" class="animable"></path></g><path d="M121.78,325.35,312.51,215.22c4.23-2.44,7.66-9,7.66-14.61V42.45c0-5.63-3.43-8.22-7.66-5.78L121.78,146.79c-4.23,2.44-7.65,9-7.65,14.62V319.56C114.13,325.2,117.55,327.79,121.78,325.35Z" style="fill: rgb(186, 104, 200); transform-origin: 217.15px 181.01px;" id="el2em1polxt8o" class="animable"></path><path d="M121.78,325.35,312.51,215.22c4.23-2.44,7.66-9,7.66-14.61V42.45c0-5.63-3.43-8.22-7.66-5.78L121.78,146.79c-4.23,2.44-7.65,9-7.65,14.62V319.56C114.13,325.2,117.55,327.79,121.78,325.35Z" style="fill: rgb(186, 104, 200); transform-origin: 217.15px 181.01px;" id="ela0gm7re1rgl" class="animable"></path><g id="el7l57ca5g4zg"><path d="M121.78,325.35,312.51,215.22c4.23-2.44,7.66-9,7.66-14.61V42.45c0-5.63-3.43-8.22-7.66-5.78L121.78,146.79c-4.23,2.44-7.65,9-7.65,14.62V319.56C114.13,325.2,117.55,327.79,121.78,325.35Z" style="fill: rgb(255, 255, 255); opacity: 0.7; transform-origin: 217.15px 181.01px;" class="animable"></path></g><path d="M121.78,146.79,312.51,36.67c4.23-2.44,7.66.15,7.66,5.78v7.73l-206,119v-7.73C114.13,155.77,117.55,149.23,121.78,146.79Z" style="fill: rgb(186, 104, 200); transform-origin: 217.17px 102.466px;" id="elr0b26snrv0k" class="animable"></path><g id="el4lhw2tfffki"><path d="M121.78,146.79,312.51,36.67c4.23-2.44,7.66.15,7.66,5.78v7.73l-206,119v-7.73C114.13,155.77,117.55,149.23,121.78,146.79Z" style="fill: rgb(255, 255, 255); opacity: 0.5; transform-origin: 217.17px 102.466px;" class="animable"></path></g><path d="M315.55,36.44c2.39,0,3.93,2.36,3.93,6V200.61c0,5.4-3.28,11.69-7.31,14L121.43,324.75a5.42,5.42,0,0,1-2.69.83c-2.39,0-3.93-2.36-3.93-6V161.41c0-5.41,3.28-11.7,7.31-14L312.86,37.26a5.4,5.4,0,0,1,2.69-.82m0-.69a6.08,6.08,0,0,0-3,.92L121.78,146.79c-4.23,2.44-7.66,9-7.66,14.62V319.56c0,4.2,1.9,6.71,4.62,6.71a6.18,6.18,0,0,0,3-.92L312.51,215.22c4.23-2.44,7.66-9,7.66-14.61V42.45c0-4.19-1.9-6.7-4.62-6.7Z" style="fill: rgb(186, 104, 200); transform-origin: 217.145px 181.01px;" id="elg61mpfisqgb" class="animable"></path><path d="M130.36,151.6a6.32,6.32,0,0,1-2.86,5c-1.58.91-2.87.17-2.87-1.65a6.33,6.33,0,0,1,2.87-5C129.08,149,130.36,149.78,130.36,151.6Z" style="fill: rgb(255, 255, 255); transform-origin: 127.495px 153.266px;" id="el29sq7uyakwz" class="animable"></path><path d="M140.46,145.77a6.32,6.32,0,0,1-2.86,5c-1.58.91-2.87.17-2.87-1.65a6.33,6.33,0,0,1,2.87-5C139.18,143.21,140.46,144,140.46,145.77Z" style="fill: rgb(255, 255, 255); transform-origin: 137.595px 147.449px;" id="eleteip6xy7xv" class="animable"></path><path d="M150.56,139.94a6.32,6.32,0,0,1-2.86,5c-1.59.91-2.87.17-2.87-1.65a6.3,6.3,0,0,1,2.87-5C149.28,137.38,150.56,138.12,150.56,139.94Z" style="fill: rgb(255, 255, 255); transform-origin: 147.695px 141.615px;" id="elkrvps5x75np" class="animable"></path><path d="M153.82,271.61h0a1,1,0,0,0-.39.09l-27.76,16a2.1,2.1,0,0,0-1.06,1.83v21.93a.63.63,0,0,0,.06.27h0a.69.69,0,0,0,1,.32l27.76-16a2.11,2.11,0,0,0,1.06-1.82V272.3A.69.69,0,0,0,153.82,271.61Z" style="fill: rgb(255, 255, 255); transform-origin: 139.55px 291.882px;" id="elrkiug5t6cc" class="animable"></path><polygon points="150.99 293.52 130.05 305.61 136.23 289.51 140.52 294.6 144.9 288.36 150.99 293.52" style="fill: rgb(186, 104, 200); transform-origin: 140.52px 296.985px;" id="elxb17t3exi6r" class="animable"></polygon><g id="elt1jg2q4jkgj"><polygon points="150.99 293.52 130.05 305.61 136.23 289.51 140.52 294.6 144.9 288.36 150.99 293.52" style="fill: rgb(255, 255, 255); opacity: 0.4; transform-origin: 140.52px 296.985px;" class="animable"></polygon></g><path d="M143.72,283.48a4.21,4.21,0,0,1-1.91,3.31c-1.05.61-1.91.11-1.91-1.11a4.22,4.22,0,0,1,1.91-3.3C142.87,281.77,143.72,282.26,143.72,283.48Z" style="fill: rgb(186, 104, 200); transform-origin: 141.81px 284.584px;" id="elmziy4b1lr98" class="animable"></path><path d="M191.07,250.05h0a.81.81,0,0,0-.39.09l-27.76,16a2.1,2.1,0,0,0-1.06,1.83v21.92a.64.64,0,0,0,.06.28h0a.69.69,0,0,0,1,.32l27.76-16a2.11,2.11,0,0,0,1.06-1.82V250.74A.69.69,0,0,0,191.07,250.05Z" style="fill: rgb(255, 255, 255); transform-origin: 176.8px 270.322px;" id="elwaavh5jijdo" class="animable"></path><polygon points="188.25 271.96 167.31 284.05 173.49 267.95 177.78 273.04 182.16 266.8 188.25 271.96" style="fill: rgb(186, 104, 200); transform-origin: 177.78px 275.425px;" id="elingznt6bbq" class="animable"></polygon><g id="elpgsl9pqrq2k"><polygon points="188.25 271.96 167.31 284.05 173.49 267.95 177.78 273.04 182.16 266.8 188.25 271.96" style="fill: rgb(255, 255, 255); opacity: 0.4; transform-origin: 177.78px 275.425px;" class="animable"></polygon></g><g id="eltdwn5c8286"><ellipse cx="179.07" cy="263.02" rx="2.7" ry="1.56" style="fill: rgb(186, 104, 200); transform-origin: 179.07px 263.02px; transform: rotate(-60deg);" class="animable"></ellipse></g><path d="M302.4,185.62h0a.81.81,0,0,0-.39.09l-27.76,16a2.11,2.11,0,0,0-1.05,1.83v21.92a.82.82,0,0,0,.05.28h0a.69.69,0,0,0,1,.32l27.77-16a2.11,2.11,0,0,0,1.05-1.83V186.31A.68.68,0,0,0,302.4,185.62Z" style="fill: rgb(255, 255, 255); transform-origin: 288.135px 205.892px;" id="elcitc7ssdath" class="animable"></path><polygon points="299.57 207.53 278.63 219.62 284.82 203.52 289.1 208.61 293.48 202.37 299.57 207.53" style="fill: rgb(186, 104, 200); transform-origin: 289.1px 210.995px;" id="elf421u9a1oi" class="animable"></polygon><g id="el7032he14k4u"><polygon points="299.57 207.53 278.63 219.62 284.82 203.52 289.1 208.61 293.48 202.37 299.57 207.53" style="fill: rgb(255, 255, 255); opacity: 0.4; transform-origin: 289.1px 210.995px;" class="animable"></polygon></g><path d="M292.31,197.49a4.22,4.22,0,0,1-1.91,3.3c-1.06.61-1.91.12-1.91-1.1a4.21,4.21,0,0,1,1.91-3.31C291.45,195.77,292.31,196.27,292.31,197.49Z" style="fill: rgb(186, 104, 200); transform-origin: 290.4px 198.586px;" id="elv8lgk2q2kz" class="animable"></path><path d="M228.33,228.49h0a.81.81,0,0,0-.39.09l-27.76,16a2.1,2.1,0,0,0-1.06,1.83v21.92a.64.64,0,0,0,.06.28h0a.69.69,0,0,0,1,.32l27.76-16A2.11,2.11,0,0,0,229,251.1V229.18A.68.68,0,0,0,228.33,228.49Z" style="fill: rgb(255, 255, 255); transform-origin: 214.06px 248.762px;" id="elprq35fdfx5m" class="animable"></path><polygon points="225.51 250.4 204.57 262.49 210.75 246.39 215.04 251.48 219.42 245.24 225.51 250.4" style="fill: rgb(186, 104, 200); transform-origin: 215.04px 253.865px;" id="eli0taddf3ug" class="animable"></polygon><g id="elt86megby9kk"><polygon points="225.51 250.4 204.57 262.49 210.75 246.39 215.04 251.48 219.42 245.24 225.51 250.4" style="fill: rgb(255, 255, 255); opacity: 0.4; transform-origin: 215.04px 253.865px;" class="animable"></polygon></g><path d="M218.24,240.36a4.21,4.21,0,0,1-1.91,3.31c-1.05.6-1.91.11-1.91-1.11a4.24,4.24,0,0,1,1.91-3.31C217.39,238.64,218.24,239.14,218.24,240.36Z" style="fill: rgb(186, 104, 200); transform-origin: 216.33px 241.458px;" id="el11j64a9ecgln" class="animable"></path><path d="M265.59,207h0a.93.93,0,0,0-.39.09l-27.76,16a2.11,2.11,0,0,0-1.06,1.83v21.93a.6.6,0,0,0,.06.27h0a.7.7,0,0,0,1,.33l27.76-16a2.13,2.13,0,0,0,1.06-1.83V207.65A.7.7,0,0,0,265.59,207Z" style="fill: rgb(255, 255, 255); transform-origin: 251.32px 227.273px;" id="elmn9ql4akcms" class="animable"></path><polygon points="262.77 228.87 241.83 240.96 248.01 224.87 252.3 229.95 256.68 223.72 262.77 228.87" style="fill: rgb(186, 104, 200); transform-origin: 252.3px 232.34px;" id="elhnl40yfpz9" class="animable"></polygon><g id="eljju6hljs7q"><polygon points="262.77 228.87 241.83 240.96 248.01 224.87 252.3 229.95 256.68 223.72 262.77 228.87" style="fill: rgb(255, 255, 255); opacity: 0.4; transform-origin: 252.3px 232.34px;" class="animable"></polygon></g><path d="M255.5,218.83a4.21,4.21,0,0,1-1.91,3.31c-1.05.61-1.91.11-1.91-1.1a4.24,4.24,0,0,1,1.91-3.31C254.65,217.12,255.5,217.61,255.5,218.83Z" style="fill: rgb(186, 104, 200); transform-origin: 253.59px 219.934px;" id="elilbv9n4eawr" class="animable"></path><path d="M272,94.89h0a3.3,3.3,0,0,0-1.5.35L163.9,156.5a8.1,8.1,0,0,0-4.05,7v84.16a2.64,2.64,0,0,0,.22,1.06h0a2.67,2.67,0,0,0,3.77,1.24l106.56-61.27a8.08,8.08,0,0,0,4.05-7V97.54A2.65,2.65,0,0,0,272,94.89Z" style="fill: rgb(255, 255, 255); transform-origin: 217.15px 172.601px;" id="eligrf0dsiy8i" class="animable"></path><polygon points="261.13 178.99 180.75 225.4 204.5 163.61 220.94 183.14 237.75 159.2 261.13 178.99" style="fill: rgb(186, 104, 200); transform-origin: 220.94px 192.3px;" id="eln4hneh1zya" class="animable"></polygon><g id="elp8fjlgxyl7p"><polygon points="261.13 178.99 180.75 225.4 204.5 163.61 220.94 183.14 237.75 159.2 261.13 178.99" style="fill: rgb(255, 255, 255); opacity: 0.4; transform-origin: 220.94px 192.3px;" class="animable"></polygon></g><path d="M233.25,140.45a16.23,16.23,0,0,1-7.34,12.7c-4,2.33-7.33.44-7.33-4.24a16.22,16.22,0,0,1,7.33-12.7C230,133.87,233.25,135.77,233.25,140.45Z" style="fill: rgb(186, 104, 200); transform-origin: 225.915px 144.678px;" id="elmbof9mbn4ak" class="animable"></path><g id="elkb4eg7u62il"><ellipse cx="294.34" cy="131.56" rx="12.31" ry="7.11" style="fill: rgb(255, 255, 255); transform-origin: 294.34px 131.56px; transform: rotate(-60deg);" class="animable"></ellipse></g><path d="M290.81,134a.8.8,0,0,1-.4-1.5l7-4.08a.8.8,0,0,1,1.1.3.81.81,0,0,1-.29,1.1l-7.06,4.07A.86.86,0,0,1,290.81,134Z" style="fill: rgb(186, 104, 200); transform-origin: 294.307px 131.156px;" id="el38mt3u6wfz" class="animable"></path><path d="M293.56,137.33a.85.85,0,0,1-.4-.1.81.81,0,0,1-.29-1.1l3.9-6.76-3.61-2.08a.8.8,0,0,1,.81-1.39l4.3,2.48a.83.83,0,0,1,.37.49.76.76,0,0,1-.08.61l-4.3,7.45A.8.8,0,0,1,293.56,137.33Z" style="fill: rgb(186, 104, 200); transform-origin: 295.716px 131.561px;" id="elljccyqo1o97" class="animable"></path><path d="M148.66,215.85c0,5.55-3.9,12.3-8.71,15.08s-8.7.52-8.7-5,3.9-12.3,8.7-15.07S148.66,210.3,148.66,215.85Z" style="fill: rgb(255, 255, 255); transform-origin: 139.955px 220.893px;" id="elz7y8agoo7rh" class="animable"></path><path d="M136.43,224.17a.81.81,0,0,1-.7-.41.8.8,0,0,1,.29-1.09l7.06-4.08a.8.8,0,1,1,.81,1.39l-7.06,4.08A.86.86,0,0,1,136.43,224.17Z" style="fill: rgb(186, 104, 200); transform-origin: 139.956px 221.325px;" id="elzsa5uap11gp" class="animable"></path><path d="M140.72,226.65a.86.86,0,0,1-.4-.11l-4.3-2.48a.83.83,0,0,1-.37-.49.76.76,0,0,1,.08-.61l4.3-7.45a.8.8,0,0,1,1.39.8l-3.9,6.76,3.61,2.08a.81.81,0,0,1,.29,1.1A.82.82,0,0,1,140.72,226.65Z" style="fill: rgb(186, 104, 200); transform-origin: 138.573px 220.879px;" id="elprxpt1t87wj" class="animable"></path></g><g id="freepik--Camera--inject-18" class="animable" style="transform-origin: 192.973px 368.791px;"><path d="M249.72,319.56v66.79c0,1.47-.88,2.86-2.7,3.91L152.17,445a12.49,12.49,0,0,1-5.27,1.48.13.13,0,0,1-.09,0V377.15Z" style="fill: rgb(186, 104, 200); transform-origin: 198.265px 383.024px;" id="el1rzu14hzqj1" class="animable"></path><g id="el1x8gqtzrgbd"><path d="M165.94,392.47v29.3a6,6,0,0,1-3,5.15l-10.8,6.23a12.49,12.49,0,0,1-5.27,1.48h-.09V398h0a12.54,12.54,0,0,0,5.36-1.49l10.33-6A2.3,2.3,0,0,1,165.94,392.47Z" style="opacity: 0.2; transform-origin: 156.36px 412.41px;" class="animable"></path></g><path d="M146.9,369.79v76.74H144a17.64,17.64,0,0,1-7.39-2.15l-10.47-6c-2.33-1.34-3.61-3-3.8-4.67V369.79Z" style="fill: rgb(186, 104, 200); transform-origin: 134.62px 408.16px;" id="eluxnd0u8jp6" class="animable"></path><g id="ely3mea0rx5cg"><path d="M146.9,369.79v76.74H144a17.64,17.64,0,0,1-7.39-2.15l-10.47-6c-2.33-1.34-3.61-3-3.8-4.67V369.79Z" style="opacity: 0.3; transform-origin: 134.62px 408.16px;" class="animable"></path></g><path d="M233.49,311.86c-4.45-1.76-10.15-1.71-13.62.29l-73,42.12L125,366.91c-1.81,1-2.7,2.44-2.7,3.91,0,1.76,1.29,3.63,3.82,5.08L136.6,382a17.42,17.42,0,0,0,7.27,2.13,17,17,0,0,0,3,0,12.36,12.36,0,0,0,5.27-1.49L247,327.82c1.82-1,2.7-2.43,2.7-3.9V304.53Z" style="fill: rgb(186, 104, 200); transform-origin: 186px 344.363px;" id="el53l964f793b" class="animable"></path><g id="el7vmkddh683b"><path d="M233.49,311.86c-4.45-1.76-10.15-1.71-13.62.29l-73,42.12L125,366.91c-1.81,1-2.7,2.44-2.7,3.91,0,1.76,1.29,3.63,3.82,5.08L136.6,382a17.42,17.42,0,0,0,7.27,2.13,17,17,0,0,0,3,0,12.36,12.36,0,0,0,5.27-1.49L247,327.82c1.82-1,2.7-2.43,2.7-3.9V304.53Z" style="fill: rgb(255, 255, 255); opacity: 0.7; transform-origin: 186px 344.363px;" class="animable"></path></g><path d="M146.9,351v33.12h-3A17.42,17.42,0,0,1,136.6,382l-10.47-6.05c-2.53-1.45-3.82-3.32-3.82-5.08V351Z" style="fill: rgb(186, 104, 200); transform-origin: 134.605px 367.56px;" id="elthuj3ebxyd" class="animable"></path><g id="elz1zb33zo2ah"><path d="M146.9,351v33.12h-3A17.42,17.42,0,0,1,136.6,382l-10.47-6.05c-2.53-1.45-3.82-3.32-3.82-5.08V351Z" style="fill: rgb(255, 255, 255); opacity: 0.5; transform-origin: 134.605px 367.56px;" class="animable"></path></g><path d="M247,308.29l-94.86,54.77c-4,2.31-11,2-15.57-.64l-10.48-6.05c-4.6-2.66-5.1-6.69-1.11-9l94.86-54.77c4-2.3,11-2,15.57.65l10.47,6C250.52,302,251,306,247,308.29Z" style="fill: rgb(186, 104, 200); transform-origin: 185.997px 327.833px;" id="el6lcec5szy2c" class="animable"></path><g id="el4zi5kstv9x4"><path d="M247,308.29l-94.86,54.77c-4,2.31-11,2-15.57-.64l-10.48-6.05c-4.6-2.66-5.1-6.69-1.11-9l94.86-54.77c4-2.3,11-2,15.57.65l10.47,6C250.52,302,251,306,247,308.29Z" style="fill: rgb(255, 255, 255); opacity: 0.6; transform-origin: 185.997px 327.833px;" class="animable"></path></g><path d="M241.6,349.18l-9.71-5.64h0c-5.93-3.63-14.22-3.23-23.41,2.07-18,10.4-32.62,35.7-32.62,56.51,0,9.55,3.08,16.48,8.15,20.19h0l0,0a15.12,15.12,0,0,0,2.66,1.57l7.71,4.53,1.89-3.17A31.54,31.54,0,0,0,208.48,421c18-10.4,32.63-35.7,32.63-56.5a33,33,0,0,0-1.83-11.38Z" style="fill: rgb(186, 104, 200); transform-origin: 208.73px 384.786px;" id="elt8n68bj344d" class="animable"></path><g id="eld4tv35at5b8"><path d="M241.6,349.18l-9.71-5.64h0c-5.93-3.63-14.22-3.23-23.41,2.07-18,10.4-32.62,35.7-32.62,56.51,0,9.55,3.08,16.48,8.15,20.19h0l0,0a15.12,15.12,0,0,0,2.66,1.57l7.71,4.53,1.89-3.17A31.54,31.54,0,0,0,208.48,421c18-10.4,32.63-35.7,32.63-56.5a33,33,0,0,0-1.83-11.38Z" style="opacity: 0.5; transform-origin: 208.73px 384.786px;" class="animable"></path></g><g id="eluiumhaebar"><ellipse cx="217.52" cy="388.5" rx="46.14" ry="26.64" style="fill: rgb(186, 104, 200); transform-origin: 217.52px 388.5px; transform: rotate(-60deg);" class="animable"></ellipse></g><g id="ellx2n8hpwz"><ellipse cx="217.52" cy="388.5" rx="46.14" ry="26.64" style="opacity: 0.2; transform-origin: 217.52px 388.5px; transform: rotate(-60deg);" class="animable"></ellipse></g><path d="M245.22,361.6,237.34,357h0c-4.81-2.95-11.55-2.62-19,1.68-14.63,8.45-26.48,29-26.48,45.87,0,7.75,2.5,13.38,6.61,16.39h0l0,0a12.7,12.7,0,0,0,2.17,1.27l6.26,3.68,1.53-2.57a25.68,25.68,0,0,0,9.89-3.5c14.62-8.44,26.48-29,26.48-45.87a27,27,0,0,0-1.48-9.23Z" style="fill: rgb(186, 104, 200); transform-origin: 218.54px 390.479px;" id="elibug2d2o7im" class="animable"></path><g id="el5sid81dr6do"><path d="M245.22,361.6,237.34,357h0c-4.81-2.95-11.55-2.62-19,1.68-14.63,8.45-26.48,29-26.48,45.87,0,7.75,2.5,13.38,6.61,16.39h0l0,0a12.7,12.7,0,0,0,2.17,1.27l6.26,3.68,1.53-2.57a25.68,25.68,0,0,0,9.89-3.5c14.62-8.44,26.48-29,26.48-45.87a27,27,0,0,0-1.48-9.23Z" style="opacity: 0.4; transform-origin: 218.54px 390.479px;" class="animable"></path></g><g id="el4vpjchrgnag"><ellipse cx="225.67" cy="393.52" rx="37.45" ry="21.62" style="fill: rgb(186, 104, 200); transform-origin: 225.67px 393.52px; transform: rotate(-60deg);" class="animable"></ellipse></g><g id="ellw1f0frr6m"><ellipse cx="225.67" cy="393.52" rx="23.26" ry="13.43" style="opacity: 0.6; transform-origin: 225.67px 393.52px; transform: rotate(-60deg);" class="animable"></ellipse></g><path d="M224.46,375.3c-8.11,5.37-14.58,16.56-15.17,26.27,1.92,2.7,5.49,3.21,9.58.84C225,398.87,230,390.26,230,383.18,230,378.45,227.76,375.62,224.46,375.3Z" style="fill: rgb(186, 104, 200); transform-origin: 219.645px 389.612px;" id="el1kbwogofv4t" class="animable"></path><g id="elkjb4vdasjz"><path d="M224.46,375.3c-8.11,5.37-14.58,16.56-15.17,26.27,1.92,2.7,5.49,3.21,9.58.84C225,398.87,230,390.26,230,383.18,230,378.45,227.76,375.62,224.46,375.3Z" style="opacity: 0.8; transform-origin: 219.645px 389.612px;" class="animable"></path></g><path d="M224.38,384.29a6.62,6.62,0,0,1-3,5.19c-1.65,1-3,.18-3-1.73a6.67,6.67,0,0,1,3-5.2C223,381.6,224.38,382.37,224.38,384.29Z" style="fill: rgb(250, 250, 250); transform-origin: 221.38px 386.026px;" id="eljk8omg7hbui" class="animable"></path><path d="M154.09,400.31a.79.79,0,1,1-.78-.79A.78.78,0,0,1,154.09,400.31Z" style="fill: rgb(186, 104, 200); transform-origin: 153.3px 400.31px;" id="elixt7qxhjy5i" class="animable"></path><path d="M157.65,398.15a.79.79,0,1,1-.78-.79A.78.78,0,0,1,157.65,398.15Z" style="fill: rgb(186, 104, 200); transform-origin: 156.86px 398.15px;" id="elw683lc7wgxf" class="animable"></path><path d="M161.21,396.13a.79.79,0,1,1-.78-.78A.78.78,0,0,1,161.21,396.13Z" style="fill: rgb(186, 104, 200); transform-origin: 160.42px 396.14px;" id="ell5emk5jo32j" class="animable"></path><circle cx="153.31" cy="404.81" r="0.78" style="fill: rgb(186, 104, 200); transform-origin: 153.31px 404.81px;" id="elmt0xa25r11h" class="animable"></circle><path d="M157.65,402.65a.79.79,0,1,1-.78-.78A.78.78,0,0,1,157.65,402.65Z" style="fill: rgb(186, 104, 200); transform-origin: 156.86px 402.66px;" id="eld2sq26bucle" class="animable"></path><path d="M161.21,400.64a.79.79,0,1,1-.78-.79A.78.78,0,0,1,161.21,400.64Z" style="fill: rgb(186, 104, 200); transform-origin: 160.42px 400.64px;" id="el6549dqrqgyt" class="animable"></path><circle cx="153.31" cy="409.31" r="0.78" style="fill: rgb(186, 104, 200); transform-origin: 153.31px 409.31px;" id="elc7f855od4zl" class="animable"></circle><circle cx="156.87" cy="407.15" r="0.78" style="fill: rgb(186, 104, 200); transform-origin: 156.87px 407.15px;" id="ely0jp9jtlkv" class="animable"></circle><path d="M161.21,405.14a.79.79,0,1,1-.78-.78A.78.78,0,0,1,161.21,405.14Z" style="fill: rgb(186, 104, 200); transform-origin: 160.42px 405.15px;" id="el0hwgw9pyold" class="animable"></path><circle cx="153.31" cy="413.82" r="0.78" style="fill: rgb(186, 104, 200); transform-origin: 153.31px 413.82px;" id="el5rcguruv01l" class="animable"></circle><circle cx="156.87" cy="411.66" r="0.78" style="fill: rgb(186, 104, 200); transform-origin: 156.87px 411.66px;" id="el6ex0jkahrm3" class="animable"></circle><path d="M161.21,409.64a.79.79,0,1,1-.78-.78A.78.78,0,0,1,161.21,409.64Z" style="fill: rgb(186, 104, 200); transform-origin: 160.42px 409.65px;" id="el96e2704yztv" class="animable"></path><path d="M154.09,418.32a.79.79,0,0,1-1.57,0,.79.79,0,1,1,1.57,0Z" style="fill: rgb(186, 104, 200); transform-origin: 153.305px 418.231px;" id="elq87yk8pu3xd" class="animable"></path><circle cx="156.87" cy="416.16" r="0.78" style="fill: rgb(186, 104, 200); transform-origin: 156.87px 416.16px;" id="eltaw9eltvftk" class="animable"></circle><path d="M161.21,414.15a.79.79,0,1,1-.78-.79A.78.78,0,0,1,161.21,414.15Z" style="fill: rgb(186, 104, 200); transform-origin: 160.42px 414.15px;" id="elth31ri1w3k" class="animable"></path><circle cx="153.31" cy="422.82" r="0.78" style="fill: rgb(186, 104, 200); transform-origin: 153.31px 422.82px;" id="elozgmi8onc2" class="animable"></circle><path d="M157.65,420.66a.79.79,0,1,1-.78-.78A.78.78,0,0,1,157.65,420.66Z" style="fill: rgb(186, 104, 200); transform-origin: 156.86px 420.67px;" id="elxrj5afx4zun" class="animable"></path><path d="M161.21,418.65a.79.79,0,1,1-.78-.78A.78.78,0,0,1,161.21,418.65Z" style="fill: rgb(186, 104, 200); transform-origin: 160.42px 418.66px;" id="el17hrtzq4yyn" class="animable"></path><circle cx="153.31" cy="427.33" r="0.78" style="fill: rgb(186, 104, 200); transform-origin: 153.31px 427.33px;" id="elergpywl41vd" class="animable"></circle><path d="M157.65,425.17a.79.79,0,1,1-.78-.79A.78.78,0,0,1,157.65,425.17Z" style="fill: rgb(186, 104, 200); transform-origin: 156.86px 425.17px;" id="elqct89yb3oa" class="animable"></path><path d="M161.21,423.15a.79.79,0,1,1-.78-.78A.78.78,0,0,1,161.21,423.15Z" style="fill: rgb(186, 104, 200); transform-origin: 160.42px 423.16px;" id="els6waxc53uro" class="animable"></path><path d="M211.24,317.06l-3.19.49-9.43-5.45-16.19,9.35-10,1.52v4.23l10.14,5.85c3,1.73,7.53,1.92,10.13.42l16.74-9.67a3,3,0,0,0,1.75-2.41h0Z" style="fill: rgb(186, 104, 200); transform-origin: 191.835px 323.291px;" id="el52pe4t4gkz4" class="animable"></path><g id="elrk7u6u8q9sl"><path d="M211.24,317.06l-3.19.49-9.43-5.45-16.19,9.35-10,1.52v4.23l10.14,5.85c3,1.73,7.53,1.92,10.13.42l16.74-9.67a3,3,0,0,0,1.75-2.41h0Z" style="opacity: 0.2; transform-origin: 191.835px 323.291px;" class="animable"></path></g><path d="M209.48,319.57l-16.74,9.67c-2.6,1.5-7.13,1.31-10.13-.42L172.47,323l26.15-15.1,10.14,5.85C211.76,315.45,212.08,318.07,209.48,319.57Z" style="fill: rgb(186, 104, 200); transform-origin: 191.854px 319.076px;" id="el0xz48lrh4a7" class="animable"></path><path d="M203.91,313.58l-2.28.35-6.75-3.9-11.59,6.69-7.12,1.09v3l7.25,4.18a8,8,0,0,0,7.25.3l12-6.91a2.18,2.18,0,0,0,1.25-1.73h0Z" style="fill: rgb(186, 104, 200); transform-origin: 190.045px 318.023px;" id="el9vukuvehv9m" class="animable"></path><g id="elxm98047zql"><path d="M203.91,313.58l-2.28.35-6.75-3.9-11.59,6.69-7.12,1.09v3l7.25,4.18a8,8,0,0,0,7.25.3l12-6.91a2.18,2.18,0,0,0,1.25-1.73h0Z" style="opacity: 0.2; transform-origin: 190.045px 318.023px;" class="animable"></path></g><path d="M202.65,315.38l-12,6.91a8,8,0,0,1-7.25-.3l-7.25-4.18L194.88,307l7.25,4.19C204.28,312.43,204.51,314.3,202.65,315.38Z" style="fill: rgb(186, 104, 200); transform-origin: 190.028px 315.008px;" id="el2f1grv2f118" class="animable"></path><path d="M158.24,348.41a3.38,3.38,0,0,0,0-.45v-6.39H137.36v6.9h0c.11,1.45,1.12,2.87,3,4a16.37,16.37,0,0,0,14.78,0c1.92-1.11,2.92-2.53,3-4h0Z" style="fill: rgb(186, 104, 200); transform-origin: 147.804px 347.901px;" id="ela66st7dsikr" class="animable"></path><g id="el0h82g3ovg3lg"><path d="M158.24,348.41a3.38,3.38,0,0,0,0-.45v-6.39H137.36v6.9h0c.11,1.45,1.12,2.87,3,4a16.37,16.37,0,0,0,14.78,0c1.92-1.11,2.92-2.53,3-4h0Z" style="opacity: 0.2; transform-origin: 147.804px 347.901px;" class="animable"></path></g><path d="M155.2,337.3c4.08,2.36,4.08,6.18,0,8.53a16.31,16.31,0,0,1-14.78,0c-4.08-2.35-4.08-6.17,0-8.53A16.31,16.31,0,0,1,155.2,337.3Z" style="fill: rgb(186, 104, 200); transform-origin: 147.81px 341.565px;" id="elp3dholig73e" class="animable"></path><path d="M217.12,305.75V303h-8.39v2.78h0a2.17,2.17,0,0,0,1.22,1.6,6.61,6.61,0,0,0,5.94,0,2.19,2.19,0,0,0,1.22-1.6h0Z" style="fill: rgb(186, 104, 200); transform-origin: 212.925px 305.542px;" id="ell6ds8706ipq" class="animable"></path><g id="elw0gjc6ewak"><path d="M217.12,305.75V303h-8.39v2.78h0a2.17,2.17,0,0,0,1.22,1.6,6.61,6.61,0,0,0,5.94,0,2.19,2.19,0,0,0,1.22-1.6h0Z" style="opacity: 0.2; transform-origin: 212.925px 305.542px;" class="animable"></path></g><path d="M215.9,301.29c1.64.95,1.64,2.48,0,3.43a6.61,6.61,0,0,1-5.94,0c-1.64-1-1.64-2.48,0-3.43A6.55,6.55,0,0,1,215.9,301.29Z" style="fill: rgb(186, 104, 200); transform-origin: 212.93px 303.001px;" id="elvl8hna9hu6l" class="animable"></path><path d="M236.05,305a2.28,2.28,0,0,0,0-.37v-5.24H218.94v5.66h0a4.38,4.38,0,0,0,2.49,3.26,13.39,13.39,0,0,0,12.11,0,4.39,4.39,0,0,0,2.48-3.26h0Z" style="fill: rgb(186, 104, 200); transform-origin: 227.499px 304.574px;" id="elbz1cq6fqp7p" class="animable"></path><g id="elhe64g9fmrec"><path d="M236.05,305a2.28,2.28,0,0,0,0-.37v-5.24H218.94v5.66h0a4.38,4.38,0,0,0,2.49,3.26,13.39,13.39,0,0,0,12.11,0,4.39,4.39,0,0,0,2.48-3.26h0Z" style="opacity: 0.2; transform-origin: 227.499px 304.574px;" class="animable"></path></g><path d="M220.61,300.64v7.09a3.45,3.45,0,0,1-.63-.57v-6.52Z" style="fill: rgb(186, 104, 200); transform-origin: 220.295px 304.185px;" id="elj4zu95u4njm" class="animable"></path><path d="M223,300.64V309a4.86,4.86,0,0,1-.63-.25v-8.12Z" style="fill: rgb(186, 104, 200); transform-origin: 222.685px 304.815px;" id="elm7yt7xbfatp" class="animable"></path><path d="M225.41,300.64v8.95a4.58,4.58,0,0,1-.63-.1v-8.85Z" style="fill: rgb(186, 104, 200); transform-origin: 225.095px 305.115px;" id="eloailuo44ktt" class="animable"></path><path d="M227.81,300.64v9.1h-.62v-9.1Z" style="fill: rgb(186, 104, 200); transform-origin: 227.5px 305.19px;" id="elyyiirihnj8" class="animable"></path><path d="M230.22,300.64v8.85a4.69,4.69,0,0,1-.62.1v-8.95Z" style="fill: rgb(186, 104, 200); transform-origin: 229.91px 305.115px;" id="el24u3s96iygw" class="animable"></path><path d="M232.62,300.64v8.12a4.73,4.73,0,0,1-.62.25v-8.37Z" style="fill: rgb(186, 104, 200); transform-origin: 232.31px 304.825px;" id="elddl42w4fm9g" class="animable"></path><path d="M235,300.64v6.53a4.07,4.07,0,0,1-.62.55v-7.08Z" style="fill: rgb(186, 104, 200); transform-origin: 234.69px 304.18px;" id="elk9g9erthmef" class="animable"></path><path d="M233.56,295.89c3.34,1.93,3.34,5.06,0,7a13.39,13.39,0,0,1-12.11,0c-3.35-1.94-3.35-5.07,0-7A13.39,13.39,0,0,1,233.56,295.89Z" style="fill: rgb(186, 104, 200); transform-origin: 227.501px 299.39px;" id="el2ipkc450hip" class="animable"></path><g id="el1c0v0988xm6"><ellipse cx="227.5" cy="299.39" rx="3.73" ry="2.15" style="opacity: 0.2; transform-origin: 227.5px 299.39px;" class="animable"></ellipse></g></g><g id="freepik--Character--inject-18" class="animable" style="transform-origin: 359.342px 281.437px;"><path d="M423.74,401.72s5.91-3.3,6.66-7-5.75-12.17-5.75-12.17S419.8,385.33,423.74,401.72Z" style="fill: rgb(186, 104, 200); transform-origin: 426.329px 392.135px;" id="el4qrwgyychqv" class="animable"></path><g id="elja4w5xdu03b"><path d="M423.74,401.72s5.91-3.3,6.66-7-5.75-12.17-5.75-12.17S419.8,385.33,423.74,401.72Z" style="opacity: 0.2; transform-origin: 426.329px 392.135px;" class="animable"></path></g><polygon points="351.37 413.13 360 408.04 361.13 399.41 358.16 398.71 351.37 413.13" style="fill: rgb(186, 104, 200); transform-origin: 356.25px 405.92px;" id="elzuq9d2v5lbk" class="animable"></polygon><g id="el2hp4zswk9sr"><polygon points="351.37 413.13 360 408.04 361.13 399.41 358.16 398.71 351.37 413.13" style="opacity: 0.3; transform-origin: 356.25px 405.92px;" class="animable"></polygon></g><path d="M402.43,363.49l8.06,12.87,5.38,17.82s9.91-1.23,3.67-24.11l-4.66-13.8Z" style="fill: rgb(148, 89, 89); transform-origin: 412.016px 375.225px;" id="eli4hnun9ou4r" class="animable"></path><path d="M349.67,368.3l1.7,20.51-5.94,15.69s3,7.36,12.31-8.2c4.94-8.25,5.11-9.89,5.11-9.89l2-18.11Z" style="fill: rgb(148, 89, 89); transform-origin: 355.14px 387.27px;" id="elcm3lxexigy4" class="animable"></path><path d="M357.36,168.56l-3,6a.68.68,0,0,0,.39.95l3.6,1.2Z" style="fill: rgb(112, 56, 56); transform-origin: 356.319px 172.635px;" id="elgg0ni6yeo29" class="animable"></path><path d="M361.56,158.5S357,161,357,175.18c0,7.81.54,12.78,4.6,12.48s15.73-1.84,15.73-1.84V158.5Z" style="fill: rgb(148, 89, 89); transform-origin: 367.165px 173.086px;" id="eluqiem1vm1h" class="animable"></path><path d="M361.56,187.66c1.42-.11,3.79-.37,6.26-.66v-1.45a32.25,32.25,0,0,1-6.94,2.1A3.82,3.82,0,0,0,361.56,187.66Z" style="fill: rgb(112, 56, 56); transform-origin: 364.35px 186.61px;" id="elkq3ln5nz3xg" class="animable"></path><polygon points="367.13 184.94 367.13 193.86 379.32 193.86 379.32 181.33 367.13 184.94" style="fill: rgb(255, 168, 167); transform-origin: 373.225px 187.595px;" id="ellx28k45le5" class="animable"></polygon><path d="M388,216.25l7.92,16.27L390,240.3l4.11,13.9,12.73-15a9.46,9.46,0,0,0,1.61-9.58c-3.5-9-10.48-26.75-12.37-29.89-2.54-4.24-5.58-6.5-10.14-6.36S388,216.25,388,216.25Z" style="fill: rgb(148, 89, 89); transform-origin: 396.718px 223.782px;" id="elztco9w3i3xf" class="animable"></path><path d="M391.82,243c1.84,5.52,5.85,13.28,5.68,39.38-.11,18.24.06,28.5.17,33a6.54,6.54,0,0,0,1.78,4.34c1.93,2,5.24,6.32,8.35,14.48a201,201,0,0,1,7.08,22.06s-2.27,7.36-12.45,7.22L377,322.55a13.43,13.43,0,0,1-1.93-5.39l-6.69-50.84V245.53Z" style="fill: rgb(55, 71, 79); transform-origin: 391.63px 303.241px;" id="elpye7ek6nqr" class="animable"></path><path d="M373.71,307.09l7.08-25.35s9.94-10.11,6.4-27.54l-15,18.91.76,28.87Z" style="fill: rgb(38, 50, 56); transform-origin: 380.071px 280.645px;" id="elg7iweabe3lw" class="animable"></path><path d="M350.38,244.4c-.42,8.2-4.88,59.26-4.24,74.11s3.53,49.79,3.53,49.79,9.62,4,15.14,0c0,0,2.33-13.76,3.85-24.66a43.19,43.19,0,0,0-.57-16.93,12.18,12.18,0,0,1,0-6.2l10.83-41.6s9.36-6.57,9.36-24.71V240.58Z" style="fill: rgb(55, 71, 79); transform-origin: 367.179px 305.329px;" id="elekid84z9cxm" class="animable"></path><path d="M376.41,187.6,357,194.75s-9.13,7.92-9.13,23.06c0,4.24,4.11,8.06,4.11,8.06s-1.42,13.29-1.56,18.53c0,0,10,7,28.55,4.24,6.67-1,12.89-5.66,12.89-5.66s-2.83-11.74-3.25-12.87,4-14.85,4-25.74Z" style="fill: rgb(186, 104, 200); transform-origin: 370.24px 218.442px;" id="elemd73f12qqi" class="animable"></path><path d="M359.19,161.66s.78,6.87,5.16,8.74c0,0-3.47,4.76,1.69,6.85v-3.68l2.16,4.21s-6.08,24.61,4.46,24.61a7.6,7.6,0,0,0,5-1.77s1.62,6.44,11.38,6.44,11.6-9.55,11.6-9.55-6.5,2-6.5-4.81-.5-28.57-.85-31.89a16.35,16.35,0,0,0-14.5-13.23c-7.6-.9-17.47-.84-23.13,7s2.45,10,2.45,10S358.24,164.36,359.19,161.66Z" style="fill: rgb(38, 50, 56); transform-origin: 377.147px 177.126px;" id="elf7aav9jdvm" class="animable"></path><path d="M366,173.57s-.33-6,4.32-5.54c5.34.53,3.64,10.18-2.87,10.18Z" style="fill: rgb(148, 89, 89); transform-origin: 369.743px 173.107px;" id="els9ffk1ma6b9" class="animable"></path><path d="M357,194.75c-11.87,3.77-34.44,15.7-34.44,15.7l-20.65-18.24-7.75,8.34A152.24,152.24,0,0,0,315.86,224a9.24,9.24,0,0,0,9.53,1.65c4.14-1.65,10-3.94,14.38-5.58,7.64-2.83,23.76-6.79,23.76-15.56S357,194.75,357,194.75Z" style="fill: rgb(148, 89, 89); transform-origin: 328.845px 209.258px;" id="eln438hn187si" class="animable"></path><path d="M362.85,386.41a9.62,9.62,0,0,0-7,5.08c-2.27,4.53-6.51,17.26-10.47,13l1.34-3.55s-15.82,3.47-12,7.61,15.66,6,16.65,4.57,6.37-11.6,6.37-11.6l3,13.58a2.37,2.37,0,0,0,3.11,0S367.69,389.1,362.85,386.41Z" style="fill: rgb(186, 104, 200); transform-origin: 349.71px 401.046px;" id="el47yw86q2frh" class="animable"></path><path d="M415.87,394.18s3.67-1.56,3.11-6.36-4.24-14.39.56-17.75c2.13-1.49,6.86,5,10.86,12.8s5.13,10,5.13,10-.45,2.07-2.27,2l-8.77-9.05a17.76,17.76,0,0,0,.29,8.34c1.27,4.24,1.44,6.71-3.18,8.77s-17.27,4.87-10.51-3.68C414.45,395,415.87,394.18,415.87,394.18Z" style="fill: rgb(186, 104, 200); transform-origin: 422.337px 387.466px;" id="elzxtvokmhbo" class="animable"></path><path d="M302.07,193.41a68.77,68.77,0,0,1,2-8.52c.93-2.4,1.34-4.44-.94-3.53s-4.08,5-4.24,5.52c0,0-11.59-13.72-13.19-13.58s-1.39,2.09,1.69,6.28l3.07,4.2s-8.11,3.83-7.24,8.79,10.89,8,10.89,8Z" style="fill: rgb(148, 89, 89); transform-origin: 293.983px 186.934px;" id="eliikc7oyl5n" class="animable"></path></g><defs>     <filter id="active" height="200%">         <feMorphology in="SourceAlpha" result="DILATED" operator="dilate" radius="2"></feMorphology>                <feFlood flood-color="#32DFEC" flood-opacity="1" result="PINK"></feFlood>        <feComposite in="PINK" in2="DILATED" operator="in" result="OUTLINE"></feComposite>        <feMerge>            <feMergeNode in="OUTLINE"></feMergeNode>            <feMergeNode in="SourceGraphic"></feMergeNode>        </feMerge>    </filter>    <filter id="hover" height="200%">        <feMorphology in="SourceAlpha" result="DILATED" operator="dilate" radius="2"></feMorphology>                <feFlood flood-color="#ff0000" flood-opacity="0.5" result="PINK"></feFlood>        <feComposite in="PINK" in2="DILATED" operator="in" result="OUTLINE"></feComposite>        <feMerge>            <feMergeNode in="OUTLINE"></feMergeNode>            <feMergeNode in="SourceGraphic"></feMergeNode>        </feMerge>            <feColorMatrix type="matrix" values="0   0   0   0   0                0   1   0   0   0                0   0   0   0   0                0   0   0   1   0 "></feColorMatrix>    </filter></defs></svg>